<svg width="2627" height="679" viewBox="0 0 2627 679" fill="none" xmlns="http://www.w3.org/2000/svg">
<path d="M0 185.515L311.711 0.119385V125.475L0 310.46V185.515Z" fill="#02111A"/>
<path d="M0 312.036L311.711 497.432V372.144L0 187.091V312.036Z" fill="#253746"/>
<path d="M623.494 185.515L311.714 0.119385V125.475L623.494 310.46V185.515Z" fill="#253746"/>
<path d="M623.494 312.036L311.714 497.432V372.144L623.494 187.091V312.036Z" fill="#02111A"/>
<path d="M0 493.456L311.711 678.92V553.564L0 368.58V493.456Z" fill="#253746"/>
<path d="M623.494 493.456L311.714 678.92V553.564L623.494 368.58V493.456Z" fill="#02111A"/>
<path d="M1045.48 402.781V493.183C1045.48 536.293 1028.07 565.49 980.777 565.49H836.162C798.603 565.49 771.462 543.901 771.462 495.239V183.048C771.462 134.386 790.927 113.482 832.666 113.482H982.148C1031.5 113.482 1045.41 137.127 1045.41 186.475V249.735H982.148V173.932H834.037V504.903H982.148V402.712H1045.41L1045.48 402.781Z" fill="#253746"/>
<path d="M1103.26 565.49V113.482H1311.2C1355 113.482 1373.09 136.442 1373.09 183.048V356.175C1373.09 391.678 1359.18 411.828 1327.17 416.009L1378.64 565.49H1315.38L1264.59 417.379H1166.52V565.49H1103.26ZM1310.45 358.985V174.001H1166.52V358.985H1310.45Z" fill="#253746"/>
<path d="M1629.7 468.851H1493.37L1472.54 565.49H1407.15L1511.47 113.482H1612.97L1716.6 565.49H1650.53L1629.7 468.851ZM1506.6 411.142H1617.15L1566.37 175.44H1558L1506.53 411.142H1506.6Z" fill="#253746"/>
<path d="M1761.84 113.482H1976.02C2021.94 113.482 2033.73 143.364 2033.73 192.78V491.812C2033.73 528.685 2013.58 565.49 1964.92 565.49H1761.84V113.482ZM1971.15 504.971V174.001H1825.1V504.971H1971.15Z" fill="#253746"/>
<path d="M2097.68 113.482H2161.62V504.971H2340.3V565.49H2097.61V113.482H2097.68Z" fill="#253746"/>
<path d="M2387.66 113.482H2626.17V173.247H2451.6V310.94H2571.89V369.334H2451.6V505.656H2626.17V565.49H2387.66V113.482Z" fill="#253746"/>
</svg>
