<svg width="2626" height="679" viewBox="0 0 2626 679" fill="none" xmlns="http://www.w3.org/2000/svg">
<path d="M0 185.383L311.691 0V125.348L0 310.32V185.383Z" fill="#9DA3A8"/>
<path d="M0 311.897L311.691 497.28V372L0 186.96V311.897Z" fill="#DBE2E9"/>
<path d="M623.45 185.383L311.691 0V125.348L623.45 310.32V185.383Z" fill="#DBE2E9"/>
<path d="M623.45 311.897L311.691 497.28V372L623.45 186.96V311.897Z" fill="#9DA3A8"/>
<path d="M0 493.305L311.691 678.757V553.409L0 368.437V493.305Z" fill="#DBE2E9"/>
<path d="M623.45 493.305L311.691 678.757V553.409L623.45 368.437V493.305Z" fill="#9DA3A8"/>
<path d="M1045.41 402.635V493.031C1045.41 536.139 1028 565.334 980.714 565.334H836.108C798.551 565.334 771.412 543.746 771.412 495.087V182.917C771.412 134.258 790.876 113.355 832.613 113.355H982.085C1031.43 113.355 1045.34 136.999 1045.34 186.343V249.6H982.085V173.802H833.983V504.75H982.085V402.567H1045.34L1045.41 402.635Z" fill="#DBE2E9"/>
<path d="M1103.18 565.334V113.355H1311.12C1354.91 113.355 1373 136.314 1373 182.917V356.033C1373 391.533 1359.09 411.682 1327.08 415.862L1378.55 565.334H1315.3L1264.51 417.233H1166.44V565.334H1103.18ZM1310.36 358.842V173.87H1166.44V358.842H1310.36Z" fill="#DBE2E9"/>
<path d="M1629.59 468.702H1493.28L1472.44 565.334H1407.06L1511.37 113.355H1612.87L1716.49 565.334H1650.42L1629.59 468.702ZM1506.5 410.996H1617.05L1566.27 175.309H1557.9L1506.44 410.996H1506.5Z" fill="#DBE2E9"/>
<path d="M1761.72 113.355H1975.89C2021.81 113.355 2033.6 143.236 2033.6 192.648V491.661C2033.6 528.532 2013.45 565.334 1964.79 565.334H1761.72V113.355ZM1971.02 504.819V173.87H1824.98V504.819H1971.02Z" fill="#DBE2E9"/>
<path d="M2097.54 113.355H2161.48V504.819H2340.15V565.334H2097.47V113.355H2097.54Z" fill="#DBE2E9"/>
<path d="M2387.5 113.355H2626V173.116H2451.45V310.8H2571.72V369.191H2451.45V505.504H2626V565.334H2387.5V113.355Z" fill="#DBE2E9"/>
</svg>
